<?xml version="1.0" encoding="UTF-8"?>
<svg id="Warstwa_1" data-name="Warstwa 1" xmlns="http://www.w3.org/2000/svg" viewBox="0 0 269.64 185.9">
  <defs>
    <style>
      .cls-1 {
        fill: #fff;
      }
    </style>
  </defs>
  <polygon class="cls-1" points="135.49 151.43 96.97 151.43 131.88 42.59 170.41 42.59 135.49 151.43"/>
  <polygon class="cls-1" points="77.06 151.43 38.53 151.43 73.44 42.59 111.97 42.59 77.06 151.43"/>
  <g>
    <polygon points="135.52 151.43 95.95 151.43 73.45 42.59 112.95 42.59 135.52 151.43"/>
    <path class="cls-1" d="M111.8,44.01l21.98,106.01h-36.68l-21.91-106.01h36.61M112.95,42.59h-39.5l22.5,108.84h39.57l-22.57-108.84h0Z"/>
  </g>
  <g>
    <polygon points="193.95 151.43 153.27 151.43 131.88 42.59 170.75 42.59 193.95 151.43"/>
    <path class="cls-1" d="M169.6,44.01l22.6,106.01h-37.76l-20.83-106.01h36M170.75,42.59h-38.87l21.39,108.84h40.68l-23.2-108.84h0Z"/>
  </g>
  <polygon class="cls-1" points="193.91 151.43 153.29 151.43 190.43 111.83 231.11 111.83 193.91 151.43"/>
</svg>