<?xml version="1.0" encoding="UTF-8"?>
<svg id="Warstwa_2" data-name="Warstwa 2" xmlns="http://www.w3.org/2000/svg" viewBox="0 0 422.8245477343 80.0050009155">
  <defs>
    <style>
      .cls-1, .cls-2 {
        fill: #fff;
      }

      .cls-2 {
        fill-rule: evenodd;
      }
    </style>
  </defs>
  <g id="Warstwa_2-2" data-name="Warstwa 2">
    <path class="cls-2" d="M53.2102280511,53.3999218573c0,14.6912501405-11.9139338197,26.6050790582-26.6051140256,26.6050790582-14.6910753038,0-26.6051140256-11.9138289177-26.6051140256-26.6050790582,0-4.8697622282,1.3104711776-9.4330706473,3.5957969584-13.359693654,4.6091506081,7.9193692622,13.1880039915,13.2452105675,23.0093170672,13.2452105675,9.8214179777,0,18.4011455447-5.3258413052,23.0102961528-13.2452105675,2.2853257808,3.9266230067,3.5948178728,8.4899314259,3.5948178728,13.359693654h0ZM53.2102280511,26.6803247452c0,4.8693775874-1.30938719,9.4326510392-3.5945031667,13.3592041112-.3055796254-.5250346808-.628013511-1.0388798113-.9677911995-1.5403465018,1.8918732181-3.5200227224,2.9656504394-7.5438199801,2.9656504394-11.8190674135,0-13.8096884131-11.1989914898-25.0086799029-25.0084700988-25.0086799029C12.7954955472,1.6714350382,1.5964341227,12.870426528,1.5964341227,26.6801149411c0,4.2752474334,1.0744416009,8.2990446911,2.9663497863,11.8190674135-.3397776885.5014666905-.6617220313,1.015311821-.9673016567,1.5403465018-2.2851159767-3.926553072-3.5954822523-8.4898265238-3.5954822523-13.3592041112C0,11.9889347352,11.9138289177.0750009155,26.6051140256.0750009155c14.6911802058,0,26.6051140256,11.9139338197,26.6051140256,26.6053238296h0ZM4.562888811,38.4994970607c4.2189500085,7.8500989524,12.5077492676,13.1894026853,22.0422252145,13.1894026853,9.5342661429,0,17.8236598469-5.3393037329,22.0427147574-13.1894026853-4.7840572663-7.0622147414-12.8723188035-11.704689229-22.0427147574-11.704689229-9.1705008559,0-17.2582029156,4.6426842916-22.0422252145,11.704689229Z"/>
    <path class="cls-1" d="M157.0656895496,54.8972235577c3.8101817488,3.0627197883,8.2727842152,4.5301593764,13.1407631088,4.5301593764,7.6599814992,0,15.9890281721-2.1983619945,15.9890281721-10.9448138611,0-12.7453523749-20.323055712-10.0671335089-20.323055712-17.8921608752,0-2.9735880267,3.4892164917-4.6534892012,6.6334101932-4.6534892012,3.0496070341,0,6.312934479,1.2677410824,7.677919747,1.9618778422l3.5365273091-3.5623681769c-2.1473446386-1.9700951682-7.5981592338-3.402007934-11.2246575208-3.402007934h-.0591647472c-9.7907865837,0-14.2497174789,5.6791863235-14.2497174789,10.868724919,0,12.3746285863,20.2109853722,10.5740201378,20.0047130057,17.9672707316-.081963456,2.9446700326-4.4847018282,4.4480210837-8.0442026829,4.4480210837-3.4796004719,0-7.2849916945-1.4698523348-9.6057044282-2.8224241955l-3.4758589661,3.501210291h0ZM129.5435569091,54.0750014142c-4.095655151,0-8.4805252101-1.7806770619-8.4805252101-12.8012301917v-20.3391406905l-7.6576037198,2.3482670012v18.1397296757c0,2.1769969469.0144415134,4.3381886539.4421620738,6.4782950521,1.6264710718,8.1139625355,6.7211432611,11.526460673,14.8652126805,11.526460673.273479603,0,.5524141117-.0047555589.8307541756-.0120637339.2783050965.007308175-.1100422338.0120637339.1645213569.0120637339,8.3080312987,0,13.4401884816-3.5504792797,14.9582957521-12.0201646129.333938142-1.8738650356.3491139696-3.7301065294.3491139696-5.629427792v-6.7282765994h.0006993469v-14.1148833977l-6.6278853528,2.0517788855v12.0631045122h-.0005944449v6.2242572928c0,11.0205531298-4.7485304441,12.8012301917-8.8441506278,12.8012301917h0ZM92.1768579087,54.2212348498c-.8212080905.2746335253-2.4189010376.5660513761-3.9178112358.5660513761-6.9438502796,0-13.7183886761-4.688771252-13.7183886761-15.0174604993,0-9.2594927482,5.5275329495-14.0080581596,12.8282949165-14.0080581596,3.1460819381,0,6.1125366265.5947245988,8.7836221541,1.9004402176l3.6817117244-3.6809074754c-1.4246395581-1.3655797129-5.8172374004-3.4430595967-12.2873151265-3.4430595967-11.634195062,0-21.0719163662,7.4790254903-21.0719163662,19.7065464574,0,14.7803119675,10.5659077139,19.1825957643,20.5379650125,19.1825957643,2.6255930121,0,5.5523947316-.5562605196,7.6217272241-1.1152834595l5.1995392561-3.1812590869v-15.0120405609l-7.657428883,2.2120691936v11.8903658294Z"/>
    <polyline class="cls-1" points="212.5500030518 0 212.5500030518 79.9599990845 213.5599975586 79.9599990845 213.5599975586 0"/>
    <g>
      <path class="cls-1" d="M356.3394252787,40.7936775254c1.37212621,1.2950508393,2.0588816088,3.2210120484,2.0588816088,5.7783451563,0,2.994401228-1.0139795773,5.2249716864-3.0414772029,6.6907883171-2.0279591547,1.466739689-4.850671533,2.1991864752-8.468598664,2.1991864752h-8.7492083968V23.4120276108h7.1583173621c3.7116175517,0,6.5740214382.6710634071,8.5858270721,2.0118056339,2.0118056339,1.3416652851,3.0179392154,3.3382404565,3.0179392154,5.9888024559,0,1.9651911881-.5381430074,3.5560822228-1.6144290221,4.7726731039s-2.5033341955,1.9808831798-4.2811445423,2.2924153667c2.1830329544.2501488079,3.9608433012,1.0222871023,5.3338925696,2.3159533542ZM340.9460430106,25.7515189524v11.7436096247h6.4567930301c1.9961136422,0,3.6026966685-.5219894866,4.8192875497-1.5673530472,1.2165908811-1.0444405023,1.8248863217-2.4867191455,1.8248863217-4.3277589881,0-2.0893425337-.7098318571-3.5865431477-2.129034042-4.4916018419-1.4196637141-.904597165-3.5325442353-1.3568957476-6.3395646219-1.3568957476h-4.6323682375ZM355.4971345511,46.5720226817c0-2.3076458292-.7098318571-4.0236112678-2.1285725128-5.1465117283-1.4201252433-1.1229004605-3.2985489482-1.6845814553-5.6380402899-1.6845814553h-6.7844787378v13.3815766343h5.9421880102c5.738653648,0,8.6089035304-2.1830329544,8.6089035304-6.5504834507Z"/>
      <path class="cls-1" d="M383.2654983429,26.7807289923c2.7604059409,2.245800921,4.1408396759,6.3792561302,4.1408396759,12.3989810402,0,6.0201864392-1.3965872558,10.2390245441-4.1874541216,12.6560527856-2.7922514533,2.4174897707-6.1997212847,3.626234656-10.2233325525,3.626234656h-6.8777076293V23.4120276108h6.3631026094c4.4288338754,0,8.0241460773,1.1229004605,10.7845520181,3.3687013814ZM368.924864102,25.7515189524v27.37098718h4.258068084c7.5164639948,0,11.2756190506-4.6475987,11.2756190506-13.9427961,0-3.6802335684-.5459890032-6.5034074758-1.6375054804-8.468598664-1.0924395355-1.9651911881-2.4724117414-3.2823954274-4.1408396759-3.9534588346-1.6688894637-.670601878-3.6105426643-1.0061335815-5.824959602-1.0061335815h-3.9303823763Z"/>
      <path class="cls-1" d="M422.8245477343,55.4619974741h-2.7137914951l-1.4505861682-15.3467678224c-.5930649781-5.9888024559-.9987491149-10.6511700892-1.2165908812-13.9894105457l-8.0472225355,25.5461008583h-2.6671770494l-8.3282937975-25.5461008583c-.0932288915,1.6536590012-.4056841368,5.7709606896-.9355196192,12.3519050653l-.1403048664,1.5442765889-1.4039717225,15.4399967139h-2.6667155202l3.0410156737-32.0499698633h3.8837679305l7.953993644,24.9848813926,7.6729223821-24.9848813926h3.9303823763l3.0880916486,32.0499698633Z"/>
    </g>
    <g>
      <polygon class="cls-1" points="284.734419755 64.9899934337 266.5258863603 64.9899934337 283.0273697492 13.549999513 301.2359031439 13.549999513 284.734419755 64.9899934337"/>
      <polygon class="cls-1" points="257.1166209425 64.9899934337 238.9080875478 64.9899934337 255.4095709367 13.549999513 273.6181043314 13.549999513 257.1166209425 64.9899934337"/>
      <g>
        <polygon points="283.8411653643 64.3201759798 266.2594376075 64.3201759798 256.2630959396 14.2198292861 273.8127764826 14.2198292861 283.8411653643 64.3201759798"/>
        <path class="cls-1" d="M273.5362575317,14.2198292861l10.3895984345,50.1003466936h-17.3335354991l-10.3563683345-50.1003466936h17.3003053991M274.0814388589,13.5499990273h-18.6679316998l10.633285834,51.44h18.7020848581l-10.6674389923-51.44h0Z"/>
      </g>
      <g>
        <polygon points="312.0212765957 64.5744680851 293.3353973351 64.5744680851 283.5106382979 13.7659574468 301.3630940545 13.7659574468 312.0212765957 64.5744680851"/>
        <path class="cls-1" d="M300.8538227108,14.2198292861l10.6810541027,50.1003466936h-17.8477943721l-9.8459170771-50.1003466936h17.0126573465M301.3958887161,13.5499990273h-18.3689761826l10.1091040839,51.44h19.2264973728l-10.9666252741-51.44h0Z"/>
      </g>
      <polygon class="cls-1" points="312.343100366 64.9899934337 293.1461000157 64.9899934337 310.6981172159 46.2715346902 329.9218674279 46.2715346902 312.343100366 64.9899934337"/>
    </g>
  </g>
</svg>