<svg xmlns="http://www.w3.org/2000/svg" width="425.825" height="80.202" viewBox="0 0 425.825 80.202">
  <g id="Warstwa_2" data-name="Warstwa 2" transform="translate(0 0.197)">
    <path id="Path_38" data-name="Path 38" d="M212.55,0V79.96h1.01V0" fill="#181210"/>
    <g id="g10" transform="translate(0 -0.197)">
      <g id="g12">
        <path id="path14" d="M154.944-379.563a26.7,26.7,0,0,1-26.7,26.7,26.7,26.7,0,0,1-26.7-26.7,26.7,26.7,0,0,1,26.7-26.7,26.7,26.7,0,0,1,26.7,26.7" transform="translate(-101.553 406.259)" fill="#a8d81b" fill-rule="evenodd"/>
        <path id="path16" d="M154.944-277.678a26.7,26.7,0,0,1-26.7,26.7,26.7,26.7,0,0,1-26.7-26.7,26.7,26.7,0,0,1,26.7-26.7,26.7,26.7,0,0,1,26.7,26.7" transform="translate(-101.553 331.185)" fill="#20337f" fill-rule="evenodd"/>
        <path id="path18" d="M161.439-291.083a26.688,26.688,0,0,1-23.088,13.291,26.685,26.685,0,0,1-23.087-13.291,26.685,26.685,0,0,1,23.087-13.289,26.686,26.686,0,0,1,23.088,13.29" transform="translate(-111.655 331.184)" fill="#181210" fill-rule="evenodd"/>
        <path id="path20" d="M445.94-293.756a20.549,20.549,0,0,0,13.185,4.546c7.686,0,16.043-2.206,16.043-10.982,0-12.789-20.392-10.1-20.392-17.953,0-2.984,3.5-4.669,6.656-4.669a19.126,19.126,0,0,1,7.7,1.968l3.549-3.575c-2.155-1.977-7.624-3.414-11.263-3.414h-.059c-9.824,0-14.3,5.7-14.3,10.906,0,12.417,20.279,10.61,20.073,18.028-.082,2.955-4.5,4.463-8.072,4.463a20.881,20.881,0,0,1-9.638-2.832Zm-27.616-.825c-4.11,0-8.509-1.787-8.509-12.845v-20.408l-7.684,2.356v18.2a32.935,32.935,0,0,0,.443,6.5c1.632,8.142,6.744,11.566,14.916,11.566.274,0,.554,0,.834-.012s-.111.012.165.012c8.336,0,13.486-3.563,15.009-12.061a31.847,31.847,0,0,0,.35-5.649v-6.751h0v-14.163l-6.65,2.059v12.1h0v6.245C427.2-296.367,422.434-294.581,418.325-294.581Zm-37.494.147a14.09,14.09,0,0,1-3.931.568c-6.968,0-13.765-4.7-13.765-15.069,0-9.291,5.546-14.055,12.872-14.055a19.878,19.878,0,0,1,8.814,1.907l3.694-3.694c-1.429-1.37-5.837-3.455-12.329-3.455-11.674,0-21.143,7.5-21.143,19.773,0,14.831,10.6,19.248,20.607,19.248a31.386,31.386,0,0,0,7.648-1.119l5.217-3.192v-15.063l-7.684,2.22v11.931" transform="translate(-288.337 348.764)" fill="#181210"/>
      </g>
    </g>
    <g id="BDM_logo_kolor" data-name="BDM logo kolor" transform="translate(238.605 12.595)">
      <g id="Group_8658" data-name="Group 8658" transform="translate(0 0)">
        <path id="Path_10454" data-name="Path 10454" d="M115.592,91.149H96.97L113.847,38.53h18.627Z" transform="translate(-68.717 -38.53)" fill="#001d77"/>
        <path id="Path_10455" data-name="Path 10455" d="M57.157,91.149H38.53L55.407,38.53H74.034Z" transform="translate(-38.53 -38.53)" fill="#001d77"/>
        <path id="Path_10456" data-name="Path 10456" d="M103.458,91.149H84.328L73.45,38.53h19.1Z" transform="translate(-56.568 -38.53)" fill="#bed600"/>
        <path id="Path_10457" data-name="Path 10457" d="M161.888,91.149H142.221L131.88,38.53h18.792Z" transform="translate(-86.75 -38.53)" fill="#bed600"/>
        <path id="Path_10458" data-name="Path 10458" d="M172.928,126.915H153.29l17.955-19.145h19.667Z" transform="translate(-97.809 -74.296)" fill="#001d77"/>
      </g>
      <g id="Group_8672" data-name="Group 8672" transform="translate(-235.605 -13.128)">
        <path id="Path_73" data-name="Path 73" d="M356.339,40.794a7.577,7.577,0,0,1,2.059,5.778q0,4.492-3.041,6.691t-8.469,2.2h-8.749V23.412H345.3q5.567,0,8.586,2.012a6.727,6.727,0,0,1,3.018,5.989,6.936,6.936,0,0,1-1.614,4.773,7.169,7.169,0,0,1-4.281,2.292,9.032,9.032,0,0,1,5.334,2.316ZM340.946,25.751V37.5H347.4a7.138,7.138,0,0,0,4.819-1.567,5.4,5.4,0,0,0,1.825-4.328,4.918,4.918,0,0,0-2.129-4.492,11.935,11.935,0,0,0-6.34-1.357h-4.632ZM355.5,46.572a6.163,6.163,0,0,0-2.129-5.147,8.829,8.829,0,0,0-5.638-1.685h-6.784V53.123h5.942q8.608,0,8.609-6.55Z"/>
        <path id="Path_74" data-name="Path 74" d="M383.266,26.781q4.141,3.369,4.141,12.4t-4.187,12.656A15.077,15.077,0,0,1,373,55.462h-6.878V23.412h6.363q6.643,0,10.785,3.369Zm-14.341-1.029V53.122h4.258q11.275,0,11.276-13.943,0-5.52-1.638-8.469a8.411,8.411,0,0,0-4.141-3.953,15.552,15.552,0,0,0-5.825-1.006h-3.93Z"/>
        <path id="Path_75" data-name="Path 75" d="M422.825,55.462h-2.714l-1.451-15.347q-.89-8.983-1.217-13.989L409.4,51.672H406.73L398.4,26.126q-.14,2.48-.936,12.352l-.14,1.544-1.4,15.44h-2.667l3.041-32.05h3.884L408.134,48.4l7.673-24.985h3.93l3.088,32.05Z"/>
      </g>
    </g>
  </g>
</svg>
