<?xml version="1.0" encoding="UTF-8"?>
<svg id="Warstwa_2" data-name="Warstwa 2" xmlns="http://www.w3.org/2000/svg" viewBox="0 0 515.4581193874 80.0050009155">
  <defs>
    <style>
      .cls-1, .cls-2 {
        fill: #fff;
      }

      .cls-2 {
        fill-rule: evenodd;
      }
    </style>
  </defs>
  <g id="Warstwa_2-2" data-name="Warstwa 2">
    <g>
      <g>
        <polygon class="cls-1" points="284.734419755 64.9899934337 266.5258863603 64.9899934337 283.0273697492 13.549999513 301.2359031439 13.549999513 284.734419755 64.9899934337"/>
        <polygon class="cls-1" points="257.1166209425 64.9899934337 238.9080875478 64.9899934337 255.4095709367 13.549999513 273.6181043314 13.549999513 257.1166209425 64.9899934337"/>
        <g>
          <polygon points="283.8411653643 64.3201759798 266.2594376075 64.3201759798 256.2630959396 14.2198292861 273.8127764826 14.2198292861 283.8411653643 64.3201759798"/>
          <path class="cls-1" d="M273.5362575317,14.2198292861l10.3895984345,50.1003466936h-17.3335354991l-10.3563683345-50.1003466936h17.3003053991M274.0814388589,13.5499990273h-18.6679316998l10.633285834,51.44h18.7020848581l-10.6674389923-51.44h0Z"/>
        </g>
        <g>
          <polygon points="312.0212765957 64.5744680851 293.3353973351 64.5744680851 283.5106382979 13.7659574468 301.3630940545 13.7659574468 312.0212765957 64.5744680851"/>
          <path class="cls-1" d="M300.8538227108,14.2198292861l10.6810541027,50.1003466936h-17.8477943721l-9.8459170771-50.1003466936h17.0126573465M301.3958887161,13.5499990273h-18.3689761826l10.1091040839,51.44h19.2264973728l-10.9666252741-51.44h0Z"/>
        </g>
        <polygon class="cls-1" points="312.343100366 64.9899934337 293.1461000157 64.9899934337 310.6981172159 46.2715346902 329.9218674279 46.2715346902 312.343100366 64.9899934337"/>
      </g>
      <g>
        <path class="cls-1" d="M345.869919694,30.655969219c.5545272928.5229125449.8316755568,1.3015122477.8316755568,2.33487605,0,1.2096679437-.4096071347,2.1110344045-1.2285906395,2.7031763243-.8194450339.5926034489-1.9598836027.8884436442-3.4217772355.8884436442h-3.5350826457v-12.9495853351h2.8924032823c1.4995082598,0,2.6561003494.2713791495,3.4688532104.8132143902.8129836256.5418352407,1.2193600561,1.3485882226,1.2193600561,2.4197974165,0,.7938301652-.2173802371,1.4367402933-.6521407113,1.9278073257-.4347604742.4915285616-1.0114411669.8007531027-1.7298113136.926750565.8819822359.1006133582,1.6003523825.4126070743,2.1551104399.9355196191ZM339.6503526552,24.5780916341v4.744981354h2.6087936099c.8065222173,0,1.4556629891-.2109188288,1.9471915507-.6332180155.4915285616-.4218376576.7372928424-1.004748994.7372928424-1.7487340094,0-.8441368443-.2868403766-1.4487400516-.8600596005-1.8147326801-.5736807531-.3650695702-1.4272789454-.548296649-2.561717635-.548296649h-1.8715007675ZM345.5295419342,32.990845269c0-.9327504442-.286609612-1.6259672512-.8600596005-2.0796504213-.5736807531-.45368317-1.3326654664-.6807555196-2.277877198-.6807555196h-2.7412524805v5.4068141778h2.4008747207c2.3187225292,0,3.4783145583-.8819822359,3.4783145583-2.6464082369Z"/>
        <path class="cls-1" d="M356.0685604361,35.5047946353c.132228106.2270723496.3431469348.3969150826.6332180155.5104512574l-.2457642808.7753689986c-.45368317-.1010748873-.8035222777-.2773790287-1.0492865585-.5293739532-.2455335162-.2519949245-.4063764305-.6239874322-.4818364491-1.1155159938-.7183701466,1.096593298-1.7457340698,1.644889947-3.0813994757,1.644889947-.9452117316,0-1.691965922-.2676869162-2.240262571-.8035222777s-.8222142089-1.2507440394-.8222142089-2.145649092c0-1.0209025148.3620696306-1.8082712718,1.0869011856-2.3630293291.7246007904-.5542965282,1.7298113136-.8316755568,3.0151700404-.8316755568h1.8904234633v-.9641344274c0-.7942916944-.1765349059-1.3707416225-.5293739532-1.7298113136s-.9389810879-.5390660657-1.7579645927-.5390660657c-.7562155382,0-1.6511205908.189226958-2.6844843931.5672193448l-.2836096724-.8316755568c1.1090545855-.4412218825,2.1486490316-.6618328238,3.1192448673-.6618328238,2.1551104399,0,3.2327810421,1.046286619,3.2327810421,3.1383983277v4.7639040498c0,.5169126657.0659986707.8884436442.1984575413,1.1150544647ZM354.7735095968,34.1248224295v-2.6842536285h-1.7203499657c-1.0082104628,0-1.7768872885.1956883663-2.3062612417.5861420406s-.7938301652.9765957149-.7938301652,1.7579645927c0,.6802939904.1825347851,1.2036680645.5480658844,1.5691991638s.8757515922.5478351199,1.5313537723.5478351199c1.2098987082,0,2.123495692-.5921419198,2.7410217159-1.7768872885Z"/>
        <path class="cls-1" d="M366.2766625261,27.2817294876c.4726058658.5293739532.7089087987,1.2728974394.7089087987,2.2305704585v7.0701652915h-1.0963625334v-6.9187837251c0-.7942916944-.1578429747-1.3735107975-.4726058658-1.739503426-.3152244203-.3650695702-.7815996423-.548296649-1.3988949017-.548296649-.6304488405,0-1.1879760729.1735349664-1.6730432262.5201433699-.4852979179.3466084035-.9484424358.8538289568-1.3894335538,1.5216616598v7.1647787705h-1.0963625334v-9.8868777906h.9452117316l.0943827144,1.6822738095c.894674288-1.2599746227,2.0039596381-1.8904234633,3.3271637565-1.8904234633.894674288,0,1.5784297472.2649177412,2.051035613.7942916944Z"/>
        <path class="cls-1" d="M371.9952396554,36.5824652376h-1.0963625334v-13.9137197625l1.0963625334-.1319973414v14.0457171039ZM373.3752118613,31.1193445015l4.5938305522,5.463120736h-1.323434883l-4.5370624648-5.4068141778,4.1590700779-4.4800636128h1.2664360311l-4.1588393134,4.4237570546Z"/>
        <path class="cls-1" d="M392.4209051833,24.9943909417c1.1152852292.90736634,1.6730432262,2.577178862,1.6730432262,5.009437566s-.5642194052,4.1371474426-1.691965922,5.1137431575c-1.1279772813.9765957149-2.5049495476,1.4648935724-4.1306860342,1.4648935724h-2.7788671075v-12.9495853351h2.5709482183c1.789348576,0,3.24224239.45368317,4.3575276193,1.3615110392ZM386.6266372708,24.5780916341v11.0591618718h1.7203499657c3.0370926758,0,4.5559851606-1.8775006466,4.5559851606-5.6334249982,0-1.4870469723-.2206109413-2.6279470703-.6616020592-3.4217772355-.4414526471-.7938301652-.9989798795-1.3259732935-1.6730432262-1.597352443-.6745248759-.2709176203-1.4588936932-.4066071951-2.3535679812-.4066071951h-1.5881218596Z"/>
        <path class="cls-1" d="M403.4987589863,35.5047946353c.132228106.2270723496.3431469348.3969150826.6332180155.5104512574l-.2457642808.7753689986c-.45368317-.1010748873-.8035222777-.2773790287-1.0492865585-.5293739532-.2455335162-.2519949245-.4063764305-.6239874322-.4818364491-1.1155159938-.7183701466,1.096593298-1.7457340698,1.644889947-3.0813994757,1.644889947-.9452117316,0-1.691965922-.2676869162-2.240262571-.8035222777s-.8222142089-1.2507440394-.8222142089-2.145649092c0-1.0209025148.3620696306-1.8082712718,1.0869011856-2.3630293291.7246007904-.5542965282,1.7298113136-.8316755568,3.0151700404-.8316755568h1.8904234633v-.9641344274c0-.7942916944-.1765349059-1.3707416225-.5293739532-1.7298113136s-.9389810879-.5390660657-1.7579645927-.5390660657c-.7562155382,0-1.6511205908.189226958-2.6844843931.5672193448l-.2836096724-.8316755568c1.1090545855-.4412218825,2.1486490316-.6618328238,3.1192448673-.6618328238,2.1551104399,0,3.2327810421,1.046286619,3.2327810421,3.1383983277v4.7639040498c0,.5169126657.0659986707.8884436442.1984575413,1.1150544647ZM402.203708147,34.1248224295v-2.6842536285h-1.7203499657c-1.0082104628,0-1.7768872885.1956883663-2.3062612417.5861420406s-.7938301652.9765957149-.7938301652,1.7579645927c0,.6802939904.1825347851,1.2036680645.5480658844,1.5691991638s.8757515922.5478351199,1.5313537723.5478351199c1.2098987082,0,2.123495692-.5921419198,2.7410217159-1.7768872885Z"/>
        <path class="cls-1" d="M413.7068610763,27.2817294876c.4726058658.5293739532.7089087987,1.2728974394.7089087987,2.2305704585v7.0701652915h-1.0963625334v-6.9187837251c0-.7942916944-.1578429747-1.3735107975-.4726058658-1.739503426-.3152244203-.3650695702-.7815996423-.548296649-1.3988949017-.548296649-.6304488405,0-1.1879760729.1735349664-1.6730432262.5201433699-.4852979179.3466084035-.9484424358.8538289568-1.3894335538,1.5216616598v7.1647787705h-1.0963625334v-9.8868777906h.9452117316l.0943827144,1.6822738095c.894674288-1.2599746227,2.0039596381-1.8904234633,3.3271637565-1.8904234633.894674288,0,1.5784297472.2649177412,2.051035613.7942916944Z"/>
        <path class="cls-1" d="M421.2969389731,36.6203106292c-.2646869766.7684460611-.5547580573,1.3988949017-.8695209484,1.8904234633-.3152244203.4915285616-.7248315549.8981357567-1.228821404,1.2193600561-.5042206137.3212242994-1.1531306208.5575272323-1.9471915507.7089087987l-.1133054102-.8505982526c.6551406509-.164304383,1.1688226125-.3659926285,1.5405843556-.6050647364.3715309785-.2395336371.667832703-.5386045365.8884436442-.8981357567.2203801767-.359069691.4444525867-.859828836.6712941717-1.502738964h-.3782231514l-3.4404691667-9.8868777906h1.1909760124l2.9867859967,9.0741249295,2.9302486739-9.0741249295h1.1531306208l-3.3839318439,9.9247231822Z"/>
        <path class="cls-1" d="M431.5998853067,26.7237407261c.440991118.1578429747.8695209484.4130686034,1.2853587269.7656768861l-.5480658844.7186009112c-.3279164723-.2649177412-.665063528-.4601445783-1.0114411669-.5861420406-.3468391681-.1259974623-.7405235466-.189226958-1.1815146645-.189226958-.9327504442,0-1.6762739303.3627619243-2.2308012231,1.0873627147s-.8316755568,1.7801179926-.8316755568,3.1660900776c0,1.3739723267.2741483245,2.407336129.8222142089,3.1005529361.548296649.6932168071,1.288589431,1.0398252106,2.2213398752,1.0398252106.440991118,0,.8411369047-.0692293749,1.2004373603-.2081496538.359069691-.1384587498.7213700862-.3466084035,1.0869011856-.6239874322l.5293739532.737523607c-.8316755568.7056780946-1.7768872885,1.0587479064-2.8356351949,1.0587479064-.8443676089,0-1.5816604513-.2021497746-2.2118785273-.6050647364-.630218076-.4033764909-1.1185159334-.9858262982-1.4648935724-1.7487340094-.3468391681-.762446182-.5199126053-1.6730432262-.5199126053-2.7317911326,0-1.0458250898.1730734372-1.9624220131.5199126053-2.7502522992.346377639-.7878302861.8346754964-1.3956641975,1.4648935724-1.8244247926.630218076-.4282990659,1.3612802746-.642910128,2.1929558315-.642910128.5672193448,0,1.0709784293.0789214874,1.5124310765.2363029329Z"/>
        <path class="cls-1" d="M441.9780608943,27.2909600709c.4788365096.5358353615.7183701466,1.2761281435.7183701466,2.2213398752v7.0701652915h-1.0963625334v-6.9187837251c0-1.5248923639-.6237566676-2.2878000751-1.8715007675-2.2878000751-.6304488405,0-1.1879760729.1735349664-1.6730432262.5201433699-.4852979179.3466084035-.9484424358.8538289568-1.3894335538,1.5216616598v7.1647787705h-1.0963625334v-13.9137197625l1.0963625334-.1319973414v5.8032677312c.8819822359-1.2345905186,1.9721141256-1.8525780717,3.2703956691-1.8525780717.8819822359,0,1.5625069909.2681484454,2.0415742651.8035222777Z"/>
        <path class="cls-1" d="M349.6696893163,55.4866998703h-1.0963625334l-.5861420406-6.200644343c-.2395336371-2.4197974165-.4033764909-4.3037594714-.4915285616-5.652347694l-3.2514729733,10.3216382648h-1.0776706022l-3.3647783835-10.3216382648c-.0378453916.6682942321-.1640736185,2.3316453458-.3782231514,4.9909763994l-.0565373228.623525903-.5672193448,6.2384897346h-1.0776706022l1.228821404-12.9495853351h1.5691991638l3.2136275817,10.0950274444,3.1003221715-10.0950274444h1.5878910951l1.2477440998,12.9495853351Z"/>
        <path class="cls-1" d="M359.4716457404,54.4090292681c.132228106.2270723496.3431469348.3969150826.6332180155.5104512574l-.2457642808.7753689986c-.45368317-.1010748873-.8035222777-.2773790287-1.0492865585-.5293739532-.2455335162-.2519949245-.4063764305-.6239874322-.4818364491-1.1155159938-.7183701466,1.096593298-1.7457340698,1.644889947-3.0813994757,1.644889947-.9452117316,0-1.691965922-.2676869162-2.240262571-.8035222777s-.8222142089-1.2507440394-.8222142089-2.145649092c0-1.0209025148.3620696306-1.8082712718,1.0869011855-2.3630293291.7246007904-.5542965282,1.7298113136-.8316755568,3.0151700404-.8316755568h1.8904234633v-.9641344274c0-.7942916944-.1765349059-1.3707416225-.5293739532-1.7298113136s-.9389810879-.5390660657-1.7579645927-.5390660657c-.7562155382,0-1.6511205908.189226958-2.6844843931.5672193448l-.2836096724-.8316755568c1.1090545855-.4412218825,2.1486490316-.6618328238,3.1192448673-.6618328238,2.1551104399,0,3.2327810421,1.046286619,3.2327810421,3.1383983277v4.7639040498c0,.5169126657.0659986707.8884436442.1984575413,1.1150544647ZM358.1765949011,53.0290570622v-2.6842536285h-1.7203499657c-1.0082104628,0-1.7768872885.1956883663-2.3062612417.5861420406s-.7938301652.9765957149-.7938301652,1.7579645927c0,.6802939904.1825347851,1.2036680645.5480658844,1.5691991638s.8757515922.5478351199,1.5313537723.5478351199c1.2098987082,0,2.123495692-.5921419198,2.7410217159-1.7768872885Z"/>
        <path class="cls-1" d="M364.3583165483,55.4866998703h-1.0963625334v-13.9137197625l1.0963625334-.1319973414v14.0457171039ZM365.7382887542,50.0235791343l4.5938305522,5.463120736h-1.323434883l-4.5370624648-5.4068141778,4.1590700779-4.4800636128h1.2664360311l-4.1588393134,4.4237570546Z"/>
        <path class="cls-1" d="M377.3074403542,45.5052086007l-.2079188892,1.0398252106c-.2773790287-.0756907832-.5672193448-.1135361748-.8695209484-.1135361748-.680524755,0-1.2258214645.2459950454-1.6351978346.737523607-.4098378993.4915285616-.7467541903,1.2599746227-1.0114411669,2.3062612417v6.011417385h-1.0963625334v-9.8868777906h.9452117316l.0943827144,2.2116477627c.2646869766-.8187527402.6267566072-1.4270481808,1.0871319501-1.8239632634.4596830492-.3973766118,1.0301330982-.5958341531,1.7106578532-.5958341531.3904536743,0,.7183701466.0378453916.9830571232.1135361748Z"/>
        <path class="cls-1" d="M385.8235765223,46.7434913527c.7372928424.9013664609,1.1058238813,2.1581103795,1.1058238813,3.7716163432,0,1.6005831471-.3749924472,2.863788474-1.1247465771,3.7900775099-.7499848945.9262890358-1.7738873489,1.3896643183-3.0719381278,1.3896643183-1.310742831,0-2.3346452854-.4569138742-3.0719381278-1.3707416225s-1.1058238813-2.1705716669-1.1058238813-3.7716163432c0-1.0458250898.1700734976-1.959191309.5104512574-2.7410217159.3401469952-.7813688778.8252141485-1.3799722059,1.4556629891-1.7958099843.6299873114-.4158377784,1.3735107975-.6239874322,2.2305704585-.6239874322,1.3105120664,0,2.3346452854.450913995,3.0719381278,1.3518189267ZM380.5210679359,47.395632064c-.5293739532.7186009112-.7940609298,1.7708874093-.7940609298,3.1568594943,0,1.3739723267.2614562724,2.4197974165.7845995819,3.1383983277.5226817803.718139382,1.2632053269,1.0776706022,2.2211091106,1.0776706022.9576730191,0,1.7044272094-.3595312202,2.240262571-1.0776706022.5353738324-.7186009112.8032915131-1.7768872885.8032915131-3.1757821901,0-1.3735107975-.261687037-2.4165667123-.7843688173-3.1287062152-.5231433095-.7121395029-1.2698974998-1.0684400189-2.240262571-1.0684400189-.9579037837,0-1.7014272699.3595312202-2.2305704585,1.0776706022Z"/>
        <path class="cls-1" d="M397.1188105624,50.9687908659h-6.5975594257c.0629987311,1.2853587269.3685310389,2.2398010418.9168276879,2.863788474s1.2694359706.9359811483,2.1645717878.9359811483c.5166819012,0,.9735957753-.0789214874,1.370510858-.2363029329.3969150826-.1578429747.8284448527-.4066071951,1.2950508393-.7467541903l.5102204928.6992166862c-.491297797.4033764909-.9955184107.7061396237-1.5122003119.90736634-.5169126657.2016882455-1.0903626543.3027631328-1.7203499657.3027631328-1.3109735956,0-2.3378759895-.4472217617-3.0813994757-1.3425883434-.7437542507-.8944435234-1.1152852292-2.1359569795-1.1152852292-3.7240788391,0-1.0458250898.1606121497-1.9628835423.4820672137-2.7502522992.3212242994-.7878302861.7811381132-1.3988949017,1.3799722059-1.834116905.5983725635-.4347604742,1.2950508393-.6521407113,2.0888810046-.6521407113,1.2602053873,0,2.218109171.4255298909,2.8734805865,1.2761281435.6551406509.8505982526.9830571232,2.0196516297.9830571232,3.506698602,0,.2773790287-.0126920521.5422967699-.0378453916.7942916944ZM396.0789853518,49.8343521763c0-1.1090545855-.2300722892-1.9753448298-.6899861029-2.599332262-.4601445783-.6239874322-1.1436692729-.9359811483-2.051035613-.9359811483-.8067529819,0-1.465124337.3152244203-1.9755755944.9452117316-.5102204928.6304488405-.7970608694,1.5881218596-.8600596005,2.8734805865h5.5766569108v-.2833789078Z"/>
        <path class="cls-1" d="M401.4101087463,55.4866998703h-1.0963625334v-13.9137197625l1.0963625334-.1319973414v14.0457171039ZM402.7900809522,50.0235791343l4.5938305522,5.463120736h-1.323434883l-4.5370624648-5.4068141778,4.1590700779-4.4800636128h1.2664360311l-4.1588393134,4.4237570546Z"/>
        <path class="cls-1" d="M415.8243568892,46.7434913527c.7372928424.9013664609,1.1058238813,2.1581103795,1.1058238813,3.7716163432,0,1.6005831471-.3749924472,2.863788474-1.1247465771,3.7900775099-.7499848945.9262890358-1.7738873489,1.3896643183-3.0719381278,1.3896643183-1.310742831,0-2.3346452854-.4569138742-3.0719381278-1.3707416225s-1.1058238813-2.1705716669-1.1058238813-3.7716163432c0-1.0458250898.1700734976-1.959191309.5104512574-2.7410217159.3401469952-.7813688778.8252141485-1.3799722059,1.4556629891-1.7958099843.6299873114-.4158377784,1.3735107975-.6239874322,2.2305704585-.6239874322,1.3105120664,0,2.3346452854.450913995,3.0719381278,1.3518189267ZM410.5218483029,47.395632064c-.5293739532.7186009112-.7940609298,1.7708874093-.7940609298,3.1568594943,0,1.3739723267.2614562724,2.4197974165.7845995819,3.1383983277.5226817803.718139382,1.2632053269,1.0776706022,2.2211091106,1.0776706022.9576730191,0,1.7044272094-.3595312202,2.240262571-1.0776706022.5353738324-.7186009112.8032915131-1.7768872885.8032915131-3.1757821901,0-1.3735107975-.261687037-2.4165667123-.7843688173-3.1287062152-.5231433095-.7121395029-1.2698974998-1.0684400189-2.240262571-1.0684400189-.9579037837,0-1.7014272699.3595312202-2.2305704585,1.0776706022Z"/>
        <path class="cls-1" d="M426.5618329324,46.1859641203c.4726058658.5293739532.7089087987,1.2728974394.7089087987,2.2305704585v7.0701652915h-1.0963625334v-6.9187837251c0-.7942916944-.1578429747-1.3735107975-.4726058658-1.739503426-.3152244203-.3650695702-.7815996423-.548296649-1.3988949017-.548296649-.6304488405,0-1.1879760729.1735349664-1.6730432262.5201433699-.4852979179.3466084035-.9484424358.8538289568-1.3894335538,1.5216616598v7.1647787705h-1.0963625334v-9.8868777906h.9452117316l.0943827144,1.6822738095c.894674288-1.2599746227,2.0039596381-1.8904234633,3.3271637565-1.8904234633.894674288,0,1.5784297472.2649177412,2.051035613.7942916944Z"/>
        <path class="cls-1" d="M437.6588401958,46.7434913527c.7372928424.9013664609,1.1058238813,2.1581103795,1.1058238813,3.7716163432,0,1.6005831471-.3749924472,2.863788474-1.1247465771,3.7900775099-.7499848945.9262890358-1.7738873489,1.3896643183-3.0719381278,1.3896643183-1.310742831,0-2.3346452854-.4569138742-3.0719381278-1.3707416225s-1.1058238813-2.1705716669-1.1058238813-3.7716163432c0-1.0458250898.1700734976-1.959191309.5104512574-2.7410217159.3401469952-.7813688778.8252141485-1.3799722059,1.4556629891-1.7958099843.6299873114-.4158377784,1.3735107975-.6239874322,2.2305704585-.6239874322,1.3105120664,0,2.3346452854.450913995,3.0719381278,1.3518189267ZM432.3563316095,47.395632064c-.5293739532.7186009112-.7940609298,1.7708874093-.7940609298,3.1568594943,0,1.3739723267.2614562724,2.4197974165.7845995819,3.1383983277.5226817803.718139382,1.2632053269,1.0776706022,2.2211091106,1.0776706022.9576730191,0,1.7044272094-.3595312202,2.240262571-1.0776706022.5353738324-.7186009112.8032915131-1.7768872885.8032915131-3.1757821901,0-1.3735107975-.261687037-2.4165667123-.7843688173-3.1287062152-.5231433095-.7121395029-1.2698974998-1.0684400189-2.240262571-1.0684400189-.9579037837,0-1.7014272699.3595312202-2.2305704585,1.0776706022Z"/>
        <path class="cls-1" d="M453.5005980486,46.2048868161c.4599138138.5418352407.6899861029,1.2788973185.6899861029,2.2116477627v7.0701652915h-1.096593298v-6.9187837251c0-.7813688778-.1481508622-1.3578188059-.4442218221-1.7298113136-.2960709599-.3715309785-.7089087987-.5579887615-1.2380519874-.5579887615-.5547580573,0-1.0525172627.1767656705-1.4935083807.5293739532-.4412218825.3530698119-.8695209484.8575211901-1.2855894914,1.5124310765v7.1647787705h-1.0963625334v-6.9187837251c0-.7813688778-.1483816268-1.3578188059-.4442218221-1.7298113136-.2963017245-.3715309785-.7089087987-.5579887615-1.2382827519-.5579887615-.5669885802,0-1.0712091939.1767656705-1.5122003119.5293739532-.4414526471.3530698119-.8635210693.8575211901-1.2666667956,1.5124310765v7.1647787705h-1.0963625334v-9.8868777906h.9452117316l.0943827144,1.6633511137c.3904536743-.5792191031.8413676693-1.0361329773,1.3515881622-1.3702800934.5104512574-.3336855869,1.0744398981-.5012206741,1.691965922-.5012206741.6299873114,0,1.1561305604.1703042622,1.5786605117.5104512574.4220684222.3406085244.7089087987.8256756777.8600596005,1.4556629891.8695209484-1.3102813018,1.9093461591-1.9661142465,3.1192448673-1.9661142465.7938301652,0,1.420817537.2713791495,1.8809621154.8132143902Z"/>
        <path class="cls-1" d="M459.2376363446,41.4788281579c.1511508018.1509200372.226841585.3401469952.226841585.5667578156,0,.2270723496-.0756907832.4162993076-.226841585.5672193448-.1513815664.1513815664-.3530698119.2270723496-.6050647364.2270723496-.2395336371,0-.4347604742-.0756907832-.585911276-.2270723496-.1513815664-.1509200372-.226841585-.3401469952-.226841585-.5672193448,0-.2266108204.0754600186-.4158377784.226841585-.5667578156.1511508018-.1513815664.346377639-.2270723496.585911276-.2270723496.2519949245,0,.45368317.0756907832.6050647364.2270723496ZM459.199790953,55.4866998703h-1.0963625334v-9.8868777906h1.0963625334v9.8868777906Z"/>
        <path class="cls-1" d="M468.1036116203,45.6279753588c.440991118.1578429747.8695209484.4130686034,1.2853587269.7656768861l-.5480658844.7186009112c-.3279164723-.2649177412-.665063528-.4601445783-1.0114411669-.5861420406-.3468391681-.1259974623-.7405235466-.189226958-1.1815146645-.189226958-.9327504442,0-1.6762739303.3627619243-2.2308012231,1.0873627147s-.8316755568,1.7801179926-.8316755568,3.1660900776c0,1.3739723267.2741483245,2.407336129.8222142089,3.1005529361.548296649.6932168071,1.288589431,1.0398252106,2.2213398752,1.0398252106.440991118,0,.8411369047-.0692293749,1.2004373603-.2081496538.359069691-.1384587498.7213700862-.3466084035,1.0869011855-.6239874322l.5293739532.737523607c-.8316755568.7056780946-1.7768872885,1.0587479064-2.8356351949,1.0587479064-.8443676089,0-1.5816604513-.2021497746-2.2118785273-.6050647364-.6302180759-.4033764909-1.1185159334-.9858262982-1.4648935724-1.7487340094-.3468391681-.762446182-.5199126053-1.6730432262-.5199126053-2.7317911326,0-1.0458250898.1730734372-1.9624220131.5199126053-2.7502522992.346377639-.7878302861.8346754964-1.3956641975,1.4648935724-1.8244247926.630218076-.4282990659,1.3612802746-.642910128,2.1929558315-.642910128.5672193448,0,1.0709784293.0789214874,1.5124310764.2363029329Z"/>
        <path class="cls-1" d="M477.4043473703,46.4504203323l-5.520119588,8.0910678063h5.4822741964l-.1133054102.9452117316h-6.654327513v-.8505982526l5.5198888234-8.0910678063h-5.0662056534v-.9452117316h6.3517951448v.8505982526Z"/>
        <path class="cls-1" d="M486.4687801873,46.1859641203c.4726058658.5293739532.7089087987,1.2728974394.7089087987,2.2305704585v7.0701652915h-1.0963625334v-6.9187837251c0-.7942916944-.1578429747-1.3735107975-.4726058658-1.739503426-.3152244203-.3650695702-.7815996423-.548296649-1.3988949017-.548296649-.6304488405,0-1.1879760729.1735349664-1.6730432262.5201433699-.4852979179.3466084035-.9484424358.8538289568-1.3894335538,1.5216616598v7.1647787705h-1.0963625334v-9.8868777906h.9452117316l.0943827144,1.6822738095c.894674288-1.2599746227,2.0039596381-1.8904234633,3.3271637565-1.8904234633.894674288,0,1.5784297472.2649177412,2.051035613.7942916944Z"/>
        <path class="cls-1" d="M494.0590888487,55.5245452619c-.2646869766.7684460611-.5547580573,1.3988949017-.8695209484,1.8904234633-.3152244203.4915285616-.7248315549.8981357567-1.228821404,1.2193600561-.5042206137.3212242994-1.1531306208.5575272323-1.9471915507.7089087987l-.1133054102-.8505982526c.6551406509-.164304383,1.1688226125-.3659926285,1.5405843556-.6050647364.3715309785-.2395336371.667832703-.5386045365.8884436442-.8981357567.2203801767-.359069691.4444525867-.859828836.6712941717-1.502738964h-.3782231514l-3.4404691667-9.8868777906h1.1909760124l2.9867859967,9.0741249295,2.9302486739-9.0741249295h1.1531306208l-3.3839318439,9.9247231822Z"/>
        <path class="cls-1" d="M504.3615736531,45.6279753588c.440991118.1578429747.8695209484.4130686034,1.2853587269.7656768861l-.5480658844.7186009112c-.3279164723-.2649177412-.665063528-.4601445783-1.0114411669-.5861420406-.3468391681-.1259974623-.7405235466-.189226958-1.1815146645-.189226958-.9327504442,0-1.6762739303.3627619243-2.2308012231,1.0873627147s-.8316755568,1.7801179926-.8316755568,3.1660900776c0,1.3739723267.2741483245,2.407336129.8222142089,3.1005529361.548296649.6932168071,1.288589431,1.0398252106,2.2213398752,1.0398252106.440991118,0,.8411369047-.0692293749,1.2004373603-.2081496538.359069691-.1384587498.7213700862-.3466084035,1.0869011855-.6239874322l.5293739532.737523607c-.8316755568.7056780946-1.7768872885,1.0587479064-2.8356351949,1.0587479064-.8443676089,0-1.5816604513-.2021497746-2.2118785273-.6050647364-.6302180759-.4033764909-1.1185159334-.9858262982-1.4648935724-1.7487340094-.3468391681-.762446182-.5199126053-1.6730432262-.5199126053-2.7317911326,0-1.0458250898.1730734372-1.9624220131.5199126053-2.7502522992.346377639-.7878302861.8346754964-1.3956641975,1.4648935724-1.8244247926.630218076-.4282990659,1.3612802746-.642910128,2.1929558315-.642910128.5672193448,0,1.0709784293.0789214874,1.5124310764.2363029329Z"/>
        <path class="cls-1" d="M514.7397492407,46.1951947036c.4788365096.5358353615.7183701466,1.2761281435.7183701466,2.2213398752v7.0701652915h-1.0963625334v-6.9187837251c0-1.5248923639-.6237566676-2.2878000751-1.8715007675-2.2878000751-.6304488405,0-1.1879760729.1735349664-1.6730432262.5201433699-.4852979179.3466084035-.9484424358.8538289568-1.3894335538,1.5216616598v7.1647787705h-1.0963625334v-13.9137197625l1.0963625334-.1319973414v5.8032677312c.8819822359-1.2345905186,1.9721141256-1.8525780717,3.2703956691-1.8525780717.8819822359,0,1.5625069909.2681484453,2.0415742651.8035222777Z"/>
      </g>
    </g>
    <path class="cls-2" d="M53.2102280511,53.3999218573c0,14.6912501405-11.9139338197,26.6050790582-26.6051140256,26.6050790582-14.6910753038,0-26.6051140256-11.9138289177-26.6051140256-26.6050790582,0-4.8697622282,1.3104711776-9.4330706473,3.5957969584-13.359693654,4.6091506081,7.9193692622,13.1880039915,13.2452105675,23.0093170672,13.2452105675,9.8214179777,0,18.4011455447-5.3258413052,23.0102961528-13.2452105675,2.2853257808,3.9266230067,3.5948178728,8.4899314259,3.5948178728,13.359693654h0ZM53.2102280511,26.6803247452c0,4.8693775874-1.30938719,9.4326510392-3.5945031667,13.3592041112-.3055796254-.5250346808-.628013511-1.0388798113-.9677911995-1.5403465018,1.8918732181-3.5200227224,2.9656504394-7.5438199801,2.9656504394-11.8190674135,0-13.8096884131-11.1989914898-25.0086799029-25.0084700988-25.0086799029C12.7954955472,1.6714350382,1.5964341227,12.870426528,1.5964341227,26.6801149411c0,4.2752474334,1.0744416009,8.2990446911,2.9663497863,11.8190674135-.3397776885.5014666905-.6617220313,1.015311821-.9673016567,1.5403465018-2.2851159767-3.926553072-3.5954822523-8.4898265238-3.5954822523-13.3592041112C0,11.9889347352,11.9138289177.0750009155,26.6051140256.0750009155c14.6911802058,0,26.6051140256,11.9139338197,26.6051140256,26.6053238296h0ZM4.562888811,38.4994970607c4.2189500085,7.8500989524,12.5077492676,13.1894026853,22.0422252145,13.1894026853,9.5342661429,0,17.8236598469-5.3393037329,22.0427147574-13.1894026853-4.7840572663-7.0622147414-12.8723188035-11.704689229-22.0427147574-11.704689229-9.1705008559,0-17.2582029156,4.6426842916-22.0422252145,11.704689229Z"/>
    <path class="cls-1" d="M157.0656895496,54.8972235577c3.8101817488,3.0627197883,8.2727842152,4.5301593764,13.1407631088,4.5301593764,7.6599814992,0,15.9890281721-2.1983619945,15.9890281721-10.9448138611,0-12.7453523749-20.323055712-10.0671335089-20.323055712-17.8921608752,0-2.9735880267,3.4892164917-4.6534892012,6.6334101932-4.6534892012,3.0496070341,0,6.312934479,1.2677410824,7.677919747,1.9618778422l3.5365273091-3.5623681769c-2.1473446386-1.9700951682-7.5981592338-3.402007934-11.2246575208-3.402007934h-.0591647472c-9.7907865837,0-14.2497174789,5.6791863235-14.2497174789,10.868724919,0,12.3746285862,20.2109853722,10.5740201378,20.0047130057,17.9672707316-.081963456,2.9446700326-4.4847018282,4.4480210837-8.0442026829,4.4480210837-3.4796004719,0-7.2849916945-1.4698523348-9.6057044282-2.8224241955l-3.4758589661,3.501210291h0ZM129.5435569091,54.0750014142c-4.095655151,0-8.4805252101-1.7806770619-8.4805252101-12.8012301917v-20.3391406905l-7.6576037198,2.3482670012v18.1397296757c0,2.1769969469.0144415134,4.3381886539.4421620738,6.4782950521,1.6264710718,8.1139625355,6.7211432611,11.526460673,14.8652126805,11.526460673.273479603,0,.5524141117-.0047555589.8307541756-.0120637339.2783050965.007308175-.1100422338.0120637339.1645213569.0120637339,8.3080312987,0,13.4401884816-3.5504792797,14.9582957521-12.0201646129.333938142-1.8738650356.3491139696-3.7301065294.3491139696-5.629427792v-6.7282765994h.0006993469v-14.1148833977l-6.6278853528,2.0517788855v12.0631045122h-.0005944449v6.2242572928c0,11.0205531298-4.7485304441,12.8012301917-8.8441506278,12.8012301917h0ZM92.1768579087,54.2212348498c-.8212080905.2746335253-2.4189010376.5660513761-3.9178112358.5660513761-6.9438502796,0-13.7183886761-4.688771252-13.7183886761-15.0174604993,0-9.2594927482,5.5275329495-14.0080581596,12.8282949165-14.0080581596,3.1460819381,0,6.1125366265.5947245988,8.7836221541,1.9004402176l3.6817117244-3.6809074754c-1.4246395581-1.3655797129-5.8172374004-3.4430595967-12.2873151265-3.4430595967-11.634195062,0-21.0719163662,7.4790254903-21.0719163662,19.7065464574,0,14.7803119675,10.5659077139,19.1825957643,20.5379650125,19.1825957643,2.6255930121,0,5.5523947316-.5562605196,7.6217272241-1.1152834595l5.1995392561-3.1812590869v-15.0120405609l-7.657428883,2.2120691936v11.8903658294Z"/>
    <polyline class="cls-1" points="212.5500030518 0 212.5500030518 79.9599990845 213.5599975586 79.9599990845 213.5599975586 0"/>
  </g>
</svg>