<?xml version="1.0" encoding="UTF-8"?>
<svg id="Warstwa_2" data-name="Warstwa 2" xmlns="http://www.w3.org/2000/svg" viewBox="0 0 515.5 80">
  <defs>
    <style>
      .cls-1 {
        fill: #bbd431;
      }

      .cls-1, .cls-2, .cls-3 {
        fill-rule: evenodd;
      }

      .cls-2 {
        fill: #272e6f;
      }

      .cls-4 {
        fill: #bed600;
      }

      .cls-5 {
        fill: #001d77;
      }
    </style>
  </defs>
  <g id="Warstwa_1-2" data-name="Warstwa 1">
    <g>
      <g>
        <path class="cls-1" d="M53.21,26.68c0,14.69-11.92,26.6-26.61,26.6S0,41.37,0,26.68,11.91.07,26.6.07s26.61,11.91,26.61,26.61Z"/>
        <path class="cls-2" d="M53.21,53.4c0,14.69-11.92,26.6-26.61,26.6S0,68.09,0,53.4s11.91-26.61,26.6-26.61,26.61,11.92,26.61,26.61Z"/>
        <path class="cls-3" d="M49.61,40.04c-4.6,7.92-13.19,13.25-23.01,13.25s-18.4-5.33-23.01-13.25c4.61-7.92,13.19-13.25,23.01-13.25s18.41,5.33,23.01,13.25Z"/>
        <path d="M157.06,54.89c3.81,3.06,8.28,4.53,13.14,4.53,7.66,0,15.99-2.2,15.99-10.94,0-12.75-20.32-10.07-20.32-17.9,0-2.97,3.48-4.65,6.63-4.65s6.31,1.27,7.68,1.96l3.55-3.56c-2.16-1.97-7.61-3.4-11.24-3.4h-.06c-9.79,0-14.25,5.68-14.25,10.87,0,12.37,20.21,10.57,20,17.96-.08,2.95-4.49,4.45-8.05,4.45s-7.28-1.47-9.6-2.83l-3.48,3.5ZM129.53,54.07c-4.09,0-8.47-1.77-8.47-12.8v-20.34l-7.66,2.35v18.15c0,2.17.01,4.33.44,6.47,1.63,8.11,6.72,11.52,14.87,11.52.27,0,.55,0,.82-.01.28,0-.1.01.17.01,8.3,0,13.43-3.55,14.95-12.03.34-1.87.35-3.72.35-5.62v-20.85l-6.63,2.06v18.28c0,11.02-4.75,12.8-8.85,12.8ZM92.17,54.21c-.82.28-2.42.57-3.92.57-6.94,0-13.71-4.69-13.71-15.01,0-9.26,5.52-14.01,12.83-14.01,3.15,0,6.11.59,8.78,1.9l3.68-3.68c-1.43-1.37-5.82-3.45-12.29-3.45-11.63,0-21.07,7.48-21.07,19.71,0,14.78,10.56,19.19,20.53,19.19,2.63,0,5.56-.55,7.63-1.12l5.2-3.18v-15.01l-7.66,2.21v11.89Z"/>
        <polyline points="212.55 0 212.55 79.96 213.56 79.96 213.56 0"/>
      </g>
      <g>
        <g>
          <polygon class="cls-5" points="284.77 64.99 266.56 64.99 283.06 13.55 301.27 13.55 284.77 64.99"/>
          <polygon class="cls-5" points="257.15 64.99 238.94 64.99 255.44 13.55 273.65 13.55 257.15 64.99"/>
          <polygon class="cls-4" points="284.78 64.99 266.08 64.99 255.45 13.55 274.11 13.55 284.78 64.99"/>
          <polygon class="cls-4" points="312.4 64.99 293.17 64.99 283.06 13.55 301.43 13.55 312.4 64.99"/>
          <polygon class="cls-5" points="312.38 64.99 293.18 64.99 310.73 46.27 329.96 46.27 312.38 64.99"/>
        </g>
        <g>
          <path d="M345.91,30.65c.55.52.83,1.3.83,2.33,0,1.21-.41,2.11-1.23,2.7-.82.59-1.96.89-3.42.89h-3.54v-12.95h2.89c1.5,0,2.66.27,3.47.81.81.54,1.22,1.35,1.22,2.42,0,.79-.22,1.44-.65,1.93-.43.49-1.01.8-1.73.93.88.1,1.6.41,2.16.94ZM339.69,24.58v4.75h2.61c.81,0,1.46-.21,1.95-.63.49-.42.74-1,.74-1.75,0-.84-.29-1.45-.86-1.81-.57-.37-1.43-.55-2.56-.55h-1.87ZM345.57,32.99c0-.93-.29-1.63-.86-2.08-.57-.45-1.33-.68-2.28-.68h-2.74v5.41h2.4c2.32,0,3.48-.88,3.48-2.65Z"/>
          <path d="M356.11,35.5c.13.23.34.4.63.51l-.25.78c-.45-.1-.8-.28-1.05-.53-.25-.25-.41-.62-.48-1.12-.72,1.1-1.75,1.64-3.08,1.64-.95,0-1.69-.27-2.24-.8s-.82-1.25-.82-2.15c0-1.02.36-1.81,1.09-2.36.72-.55,1.73-.83,3.02-.83h1.89v-.96c0-.79-.18-1.37-.53-1.73s-.94-.54-1.76-.54c-.76,0-1.65.19-2.68.57l-.28-.83c1.11-.44,2.15-.66,3.12-.66,2.16,0,3.23,1.05,3.23,3.14v4.76c0,.52.07.89.2,1.12ZM354.81,34.12v-2.68h-1.72c-1.01,0-1.78.2-2.31.59s-.79.98-.79,1.76c0,.68.18,1.2.55,1.57s.88.55,1.53.55c1.21,0,2.12-.59,2.74-1.78Z"/>
          <path d="M366.31,27.28c.47.53.71,1.27.71,2.23v7.07h-1.1v-6.92c0-.79-.16-1.37-.47-1.74-.32-.37-.78-.55-1.4-.55s-1.19.17-1.67.52c-.49.35-.95.85-1.39,1.52v7.17h-1.1v-9.89h.95l.09,1.68c.89-1.26,2-1.89,3.33-1.89.89,0,1.58.26,2.05.79Z"/>
          <path d="M372.03,36.58h-1.1v-13.91l1.1-.13v14.05ZM373.41,31.12l4.59,5.46h-1.32l-4.54-5.41,4.16-4.48h1.27l-4.16,4.42Z"/>
          <path d="M392.46,24.99c1.12.91,1.67,2.58,1.67,5.01s-.56,4.14-1.69,5.11c-1.13.98-2.51,1.46-4.13,1.46h-2.78v-12.95h2.57c1.79,0,3.24.45,4.36,1.36ZM386.67,24.58v11.06h1.72c3.04,0,4.56-1.88,4.56-5.63,0-1.49-.22-2.63-.66-3.42-.44-.79-1-1.33-1.67-1.6-.67-.27-1.46-.41-2.35-.41h-1.59Z"/>
          <path d="M403.54,35.5c.13.23.34.4.63.51l-.25.78c-.45-.1-.8-.28-1.05-.53-.25-.25-.41-.62-.48-1.12-.72,1.1-1.75,1.64-3.08,1.64-.95,0-1.69-.27-2.24-.8s-.82-1.25-.82-2.15c0-1.02.36-1.81,1.09-2.36.72-.55,1.73-.83,3.02-.83h1.89v-.96c0-.79-.18-1.37-.53-1.73s-.94-.54-1.76-.54c-.76,0-1.65.19-2.68.57l-.28-.83c1.11-.44,2.15-.66,3.12-.66,2.16,0,3.23,1.05,3.23,3.14v4.76c0,.52.07.89.2,1.12ZM402.24,34.12v-2.68h-1.72c-1.01,0-1.78.2-2.31.59s-.79.98-.79,1.76c0,.68.18,1.2.55,1.57s.88.55,1.53.55c1.21,0,2.12-.59,2.74-1.78Z"/>
          <path d="M413.75,27.28c.47.53.71,1.27.71,2.23v7.07h-1.1v-6.92c0-.79-.16-1.37-.47-1.74-.32-.37-.78-.55-1.4-.55s-1.19.17-1.67.52c-.49.35-.95.85-1.39,1.52v7.17h-1.1v-9.89h.95l.09,1.68c.89-1.26,2-1.89,3.33-1.89.89,0,1.58.26,2.05.79Z"/>
          <path d="M421.34,36.62c-.26.77-.55,1.4-.87,1.89-.32.49-.72.9-1.23,1.22-.5.32-1.15.56-1.95.71l-.11-.85c.66-.16,1.17-.37,1.54-.61.37-.24.67-.54.89-.9.22-.36.44-.86.67-1.5h-.38l-3.44-9.89h1.19l2.99,9.07,2.93-9.07h1.15l-3.38,9.93Z"/>
          <path d="M431.64,26.72c.44.16.87.41,1.29.77l-.55.72c-.33-.26-.67-.46-1.01-.59-.35-.13-.74-.19-1.18-.19-.93,0-1.68.36-2.23,1.09s-.83,1.78-.83,3.17.27,2.41.82,3.1c.55.69,1.29,1.04,2.22,1.04.44,0,.84-.07,1.2-.21.36-.14.72-.35,1.09-.62l.53.74c-.83.71-1.78,1.06-2.84,1.06-.84,0-1.58-.2-2.21-.61-.63-.4-1.12-.99-1.46-1.75-.35-.76-.52-1.67-.52-2.73s.17-1.96.52-2.75c.35-.79.83-1.4,1.46-1.82.63-.43,1.36-.64,2.19-.64.57,0,1.07.08,1.51.24Z"/>
          <path d="M442.02,27.29c.48.54.72,1.28.72,2.22v7.07h-1.1v-6.92c0-1.52-.62-2.29-1.87-2.29-.63,0-1.19.17-1.67.52-.49.35-.95.85-1.39,1.52v7.17h-1.1v-13.91l1.1-.13v5.8c.88-1.23,1.97-1.85,3.27-1.85.88,0,1.56.27,2.04.8Z"/>
          <path d="M349.71,55.49h-1.1l-.59-6.2c-.24-2.42-.4-4.3-.49-5.65l-3.25,10.32h-1.08l-3.36-10.32c-.04.67-.16,2.33-.38,4.99l-.06.62-.57,6.24h-1.08l1.23-12.95h1.57l3.21,10.1,3.1-10.1h1.59l1.25,12.95Z"/>
          <path d="M359.51,54.41c.13.23.34.4.63.51l-.25.78c-.45-.1-.8-.28-1.05-.53-.25-.25-.41-.62-.48-1.12-.72,1.1-1.75,1.64-3.08,1.64-.95,0-1.69-.27-2.24-.8s-.82-1.25-.82-2.15c0-1.02.36-1.81,1.09-2.36.72-.55,1.73-.83,3.02-.83h1.89v-.96c0-.79-.18-1.37-.53-1.73s-.94-.54-1.76-.54c-.76,0-1.65.19-2.68.57l-.28-.83c1.11-.44,2.15-.66,3.12-.66,2.16,0,3.23,1.05,3.23,3.14v4.76c0,.52.07.89.2,1.12ZM358.21,53.03v-2.68h-1.72c-1.01,0-1.78.2-2.31.59s-.79.98-.79,1.76c0,.68.18,1.2.55,1.57s.88.55,1.53.55c1.21,0,2.12-.59,2.74-1.78Z"/>
          <path d="M364.4,55.49h-1.1v-13.91l1.1-.13v14.05ZM365.78,50.02l4.59,5.46h-1.32l-4.54-5.41,4.16-4.48h1.27l-4.16,4.42Z"/>
          <path d="M377.35,45.5l-.21,1.04c-.28-.08-.57-.11-.87-.11-.68,0-1.23.25-1.64.74-.41.49-.75,1.26-1.01,2.31v6.01h-1.1v-9.89h.95l.09,2.21c.26-.82.63-1.43,1.09-1.82.46-.4,1.03-.6,1.71-.6.39,0,.72.04.98.11Z"/>
          <path d="M385.86,46.74c.74.9,1.11,2.16,1.11,3.77s-.38,2.86-1.12,3.79c-.75.93-1.77,1.39-3.07,1.39s-2.33-.46-3.07-1.37-1.11-2.17-1.11-3.77c0-1.05.17-1.96.51-2.74.34-.78.83-1.38,1.46-1.8.63-.42,1.37-.62,2.23-.62,1.31,0,2.33.45,3.07,1.35ZM380.56,47.4c-.53.72-.79,1.77-.79,3.16s.26,2.42.78,3.14c.52.72,1.26,1.08,2.22,1.08s1.7-.36,2.24-1.08c.54-.72.8-1.78.8-3.18s-.26-2.42-.78-3.13c-.52-.71-1.27-1.07-2.24-1.07s-1.7.36-2.23,1.08Z"/>
          <path d="M397.16,50.97h-6.6c.06,1.29.37,2.24.92,2.86s1.27.94,2.16.94c.52,0,.97-.08,1.37-.24.4-.16.83-.41,1.3-.75l.51.7c-.49.4-1,.71-1.51.91-.52.2-1.09.3-1.72.3-1.31,0-2.34-.45-3.08-1.34-.74-.89-1.12-2.14-1.12-3.72,0-1.05.16-1.96.48-2.75.32-.79.78-1.4,1.38-1.83.6-.43,1.3-.65,2.09-.65,1.26,0,2.22.43,2.87,1.28.66.85.98,2.02.98,3.51,0,.28-.01.54-.04.79ZM396.12,49.83c0-1.11-.23-1.98-.69-2.6-.46-.62-1.14-.94-2.05-.94-.81,0-1.47.32-1.98.95-.51.63-.8,1.59-.86,2.87h5.58v-.28Z"/>
          <path d="M401.45,55.49h-1.1v-13.91l1.1-.13v14.05ZM402.83,50.02l4.59,5.46h-1.32l-4.54-5.41,4.16-4.48h1.27l-4.16,4.42Z"/>
          <path d="M415.86,46.74c.74.9,1.11,2.16,1.11,3.77s-.38,2.86-1.12,3.79c-.75.93-1.77,1.39-3.07,1.39s-2.33-.46-3.07-1.37-1.11-2.17-1.11-3.77c0-1.05.17-1.96.51-2.74.34-.78.83-1.38,1.46-1.8.63-.42,1.37-.62,2.23-.62,1.31,0,2.33.45,3.07,1.35ZM410.56,47.4c-.53.72-.79,1.77-.79,3.16s.26,2.42.78,3.14c.52.72,1.26,1.08,2.22,1.08s1.7-.36,2.24-1.08c.54-.72.8-1.78.8-3.18s-.26-2.42-.78-3.13c-.52-.71-1.27-1.07-2.24-1.07s-1.7.36-2.23,1.08Z"/>
          <path d="M426.6,46.19c.47.53.71,1.27.71,2.23v7.07h-1.1v-6.92c0-.79-.16-1.37-.47-1.74-.32-.37-.78-.55-1.4-.55s-1.19.17-1.67.52c-.49.35-.95.85-1.39,1.52v7.17h-1.1v-9.89h.95l.09,1.68c.89-1.26,2-1.89,3.33-1.89.89,0,1.58.26,2.05.79Z"/>
          <path d="M437.7,46.74c.74.9,1.11,2.16,1.11,3.77s-.38,2.86-1.12,3.79c-.75.93-1.77,1.39-3.07,1.39s-2.33-.46-3.07-1.37-1.11-2.17-1.11-3.77c0-1.05.17-1.96.51-2.74.34-.78.83-1.38,1.46-1.8.63-.42,1.37-.62,2.23-.62,1.31,0,2.33.45,3.07,1.35ZM432.4,47.4c-.53.72-.79,1.77-.79,3.16s.26,2.42.78,3.14c.52.72,1.26,1.08,2.22,1.08s1.7-.36,2.24-1.08c.54-.72.8-1.78.8-3.18s-.26-2.42-.78-3.13c-.52-.71-1.27-1.07-2.24-1.07s-1.7.36-2.23,1.08Z"/>
          <path d="M453.54,46.2c.46.54.69,1.28.69,2.21v7.07h-1.1v-6.92c0-.78-.15-1.36-.44-1.73-.3-.37-.71-.56-1.24-.56s-1.05.18-1.49.53c-.44.35-.87.86-1.29,1.51v7.17h-1.1v-6.92c0-.78-.15-1.36-.44-1.73-.3-.37-.71-.56-1.24-.56-.57,0-1.07.18-1.51.53-.44.35-.86.86-1.27,1.51v7.17h-1.1v-9.89h.95l.09,1.66c.39-.58.84-1.04,1.35-1.37.51-.33,1.07-.5,1.69-.5s1.16.17,1.58.51c.42.34.71.83.86,1.46.87-1.31,1.91-1.97,3.12-1.97.79,0,1.42.27,1.88.81Z"/>
          <path d="M459.28,41.48c.15.15.23.34.23.57s-.08.42-.23.57c-.15.15-.35.23-.61.23s-.43-.08-.59-.23c-.15-.15-.23-.34-.23-.57s.08-.42.23-.57c.15-.15.35-.23.59-.23.25,0,.45.08.61.23ZM459.24,55.49h-1.1v-9.89h1.1v9.89Z"/>
          <path d="M468.15,45.63c.44.16.87.41,1.29.77l-.55.72c-.33-.26-.67-.46-1.01-.59-.35-.13-.74-.19-1.18-.19-.93,0-1.68.36-2.23,1.09s-.83,1.78-.83,3.17.27,2.41.82,3.1c.55.69,1.29,1.04,2.22,1.04.44,0,.84-.07,1.2-.21.36-.14.72-.35,1.09-.62l.53.74c-.83.71-1.78,1.06-2.84,1.06-.84,0-1.58-.2-2.21-.61-.63-.4-1.12-.99-1.46-1.75-.35-.76-.52-1.67-.52-2.73s.17-1.96.52-2.75c.35-.79.83-1.4,1.46-1.82.63-.43,1.36-.64,2.19-.64.57,0,1.07.08,1.51.24Z"/>
          <path d="M477.45,46.45l-5.52,8.09h5.48l-.11.95h-6.65v-.85l5.52-8.09h-5.07v-.95h6.35v.85Z"/>
          <path d="M486.51,46.19c.47.53.71,1.27.71,2.23v7.07h-1.1v-6.92c0-.79-.16-1.37-.47-1.74-.32-.37-.78-.55-1.4-.55s-1.19.17-1.67.52c-.49.35-.95.85-1.39,1.52v7.17h-1.1v-9.89h.95l.09,1.68c.89-1.26,2-1.89,3.33-1.89.89,0,1.58.26,2.05.79Z"/>
          <path d="M494.1,55.52c-.26.77-.55,1.4-.87,1.89-.32.49-.72.9-1.23,1.22-.5.32-1.15.56-1.95.71l-.11-.85c.66-.16,1.17-.37,1.54-.61.37-.24.67-.54.89-.9.22-.36.44-.86.67-1.5h-.38l-3.44-9.89h1.19l2.99,9.07,2.93-9.07h1.15l-3.38,9.93Z"/>
          <path d="M504.41,45.63c.44.16.87.41,1.29.77l-.55.72c-.33-.26-.67-.46-1.01-.59-.35-.13-.74-.19-1.18-.19-.93,0-1.68.36-2.23,1.09s-.83,1.78-.83,3.17.27,2.41.82,3.1c.55.69,1.29,1.04,2.22,1.04.44,0,.84-.07,1.2-.21.36-.14.72-.35,1.09-.62l.53.74c-.83.71-1.78,1.06-2.84,1.06-.84,0-1.58-.2-2.21-.61-.63-.4-1.12-.99-1.46-1.75-.35-.76-.52-1.67-.52-2.73s.17-1.96.52-2.75c.35-.79.83-1.4,1.46-1.82.63-.43,1.36-.64,2.19-.64.57,0,1.07.08,1.51.24Z"/>
          <path d="M514.78,46.19c.48.54.72,1.28.72,2.22v7.07h-1.1v-6.92c0-1.52-.62-2.29-1.87-2.29-.63,0-1.19.17-1.67.52-.49.35-.95.85-1.39,1.52v7.17h-1.1v-13.91l1.1-.13v5.8c.88-1.23,1.97-1.85,3.27-1.85.88,0,1.56.27,2.04.8Z"/>
        </g>
      </g>
    </g>
  </g>
</svg>