<svg xmlns="http://www.w3.org/2000/svg" width="22.821" height="42.452" viewBox="0 0 22.821 42.452">
  <g id="Group_2" data-name="Group 2" transform="translate(-63.255 -146.72)">
    <g id="Group_1" data-name="Group 1" transform="translate(30)">
      <path id="Path_1" data-name="Path 1" d="M22.821,22.945a11.41,11.41,0,1,1-21.279-5.73,11.412,11.412,0,0,0,19.737,0,11.354,11.354,0,0,1,1.542,5.73h0Zm0-11.459a11.354,11.354,0,0,1-1.542,5.729q-.2-.338-.415-.661a10.726,10.726,0,1,0-18.907,0q-.219.323-.415.661a11.411,11.411,0,1,1,21.279-5.729h0ZM1.957,16.554a10.728,10.728,0,0,0,18.907,0,11.411,11.411,0,0,0-18.907,0Z" transform="translate(33.255 146.645)" fill="#fff" fill-rule="evenodd"/>
    </g>
    <path id="Path_2" data-name="Path 2" d="M80.662,25.919a3.208,3.208,0,0,0,2.058.709c1.2,0,2.5-.344,2.5-1.714,0-2-3.183-1.577-3.183-2.8,0-.466.546-.729,1.039-.729a2.984,2.984,0,0,1,1.2.307l.554-.558a3.162,3.162,0,0,0-1.758-.533h-.009c-1.533,0-2.232.889-2.232,1.7,0,1.938,3.165,1.656,3.133,2.814-.013.461-.7.7-1.26.7a3.259,3.259,0,0,1-1.5-.442l-.544.548h0Zm-4.31-.129c-.641,0-1.328-.279-1.328-2V20.6l-1.2.368v2.841a5.14,5.14,0,0,0,.069,1.015,2.08,2.08,0,0,0,2.328,1.805l.13,0c.044,0-.017,0,.026,0a2.089,2.089,0,0,0,2.343-1.882,4.968,4.968,0,0,0,.055-.882V22.811h0V20.6l-1.038.321v1.889h0v.975c0,1.726-.744,2-1.385,2h0Zm-5.852.023a2.2,2.2,0,0,1-.614.089,2.127,2.127,0,0,1-2.148-2.352,1.954,1.954,0,0,1,2.009-2.194,3.1,3.1,0,0,1,1.376.3l.577-.576a3.4,3.4,0,0,0-5.224,2.547c0,2.315,1.655,3,3.216,3a4.9,4.9,0,0,0,1.194-.175l.814-.5V23.6l-1.2.346v1.862Z" transform="translate(-1.184 162.544)" fill="#fff"/>
  </g>
</svg>
