<svg xmlns="http://www.w3.org/2000/svg" width="23.436" height="41.34" viewBox="0 0 23.436 41.34">
  <g id="Group_8696" data-name="Group 8696" transform="translate(-397.282 -3045.764)">
    <path id="path2" d="M144.476,123.335c0,5.971-5.246,10.811-11.718,10.811s-11.718-4.84-11.718-10.811,5.246-10.811,11.718-10.811S144.476,117.364,144.476,123.335Z" transform="translate(276.242 2933.24)" fill="#bfce00" fill-rule="evenodd"/>
    <path id="path4" d="M144.476,290.531c0,5.97-5.246,10.811-11.718,10.811s-11.718-4.84-11.718-10.811,5.246-10.811,11.718-10.811S144.476,284.56,144.476,290.531Z" transform="translate(276.242 2776.901)" fill="#00327b" fill-rule="evenodd"/>
    <path id="path6" d="M165.695,285.1a12.232,12.232,0,0,1-20.269,0,12.233,12.233,0,0,1,20.269,0Z" transform="translate(253.439 2776.9)" fill="#15130e" fill-rule="evenodd"/>
    <path id="path8" d="M171.234,667.579a3.382,3.382,0,0,0,2.058.655c1.2,0,2.5-.318,2.5-1.581,0-1.842-3.183-1.455-3.183-2.585,0-.43.546-.672,1.039-.672a3.183,3.183,0,0,1,1.2.283l.554-.515a3.351,3.351,0,0,0-1.758-.492h-.009c-1.533,0-2.232.82-2.232,1.57,0,1.788,3.165,1.528,3.133,2.6-.013.425-.7.643-1.26.643a3.463,3.463,0,0,1-1.5-.408Zm-4.31-.119c-.641,0-1.328-.257-1.328-1.849v-2.938l-1.2.339v2.621a4.382,4.382,0,0,0,.069.936,2.053,2.053,0,0,0,2.328,1.665l.13,0c.044,0-.017,0,.026,0a2.055,2.055,0,0,0,2.342-1.737,4.232,4.232,0,0,0,.055-.813v-.972h0v-2.039l-1.038.3v1.743h0v.9c0,1.592-.744,1.849-1.385,1.849Zm-5.852.021a2.372,2.372,0,0,1-.614.082,2.041,2.041,0,0,1-2.148-2.17,1.873,1.873,0,0,1,2.009-2.024,3.323,3.323,0,0,1,1.376.275l.577-.532a3.225,3.225,0,0,0-1.924-.5c-1.822,0-3.3,1.081-3.3,2.847,0,2.135,1.655,2.771,3.216,2.771a5.276,5.276,0,0,0,1.194-.161l.814-.46v-2.169l-1.2.32Z" transform="translate(242.573 2418.87)" fill="#15130e" fill-rule="evenodd"/>
  </g>
</svg>
